<?xml version="1.0" encoding="UTF-8" standalone="no"?> <svg xmlns="http://www.w3.org/2000/svg" xmlns:xlink="http://www.w3.org/1999/xlink" width="100%" height="100%" viewBox="0 0 239 40" xml:space="preserve" style="fill-rule:evenodd;clip-rule:evenodd;stroke-linejoin:round;stroke-miterlimit:1.41421;"> <g transform="matrix(0.24,0,0,0.24,0.0878841,4.86621)"> <path d="M50.042,116.345c-5.225,0 -10.427,-0.16 -15.606,-0.481c-5.179,-0.321 -10.565,-1.077 -16.157,-2.269l0,-92.4c4.4,-0.825 9.213,-1.444 14.438,-1.856c5.225,-0.413 10.083,-0.619 14.575,-0.619c6.05,0 11.619,0.436 16.706,1.306c5.088,0.871 9.465,2.361 13.131,4.469c3.667,2.109 6.532,4.881 8.594,8.319c2.063,3.437 3.094,7.677 3.094,12.719c0,7.608 -3.667,13.612 -11,18.012c6.05,2.292 10.175,5.409 12.375,9.35c2.2,3.942 3.3,8.388 3.3,13.338c0,9.991 -3.644,17.508 -10.931,22.55c-7.288,5.041 -18.127,7.562 -32.519,7.562Zm-10.863,-42.762l0,24.612c1.559,0.184 3.255,0.321 5.088,0.413c1.833,0.091 3.85,0.137 6.05,0.137c6.417,0 11.596,-0.916 15.537,-2.75c3.942,-1.833 5.913,-5.225 5.913,-10.175c0,-4.4 -1.65,-7.539 -4.95,-9.419c-3.3,-1.879 -8.021,-2.818 -14.163,-2.818l-13.475,0Zm0,-16.363l10.45,0c6.6,0 11.321,-0.848 14.163,-2.544c2.842,-1.695 4.262,-4.422 4.262,-8.181c0,-3.85 -1.466,-6.554 -4.4,-8.112c-2.933,-1.559 -7.241,-2.338 -12.925,-2.338c-1.833,0 -3.804,0.023 -5.912,0.069c-2.108,0.046 -3.988,0.16 -5.638,0.344l0,20.762Z" style="fill:#fff;fill-rule:nonzero;"></path> <path d="M138.179,116.483c-5.958,-0.092 -10.793,-0.734 -14.506,-1.925c-3.712,-1.192 -6.646,-2.865 -8.8,-5.019c-2.154,-2.154 -3.621,-4.767 -4.4,-7.838c-0.779,-3.07 -1.169,-6.531 -1.169,-10.381l0,-79.612l20.488,-3.3l0,78.787c0,1.834 0.137,3.484 0.412,4.95c0.275,1.467 0.803,2.704 1.582,3.713c0.779,1.008 1.902,1.833 3.368,2.475c1.467,0.641 3.438,1.054 5.913,1.237l-2.888,16.913Z" style="fill:#fff;fill-rule:nonzero;"></path> <path d="M220.404,78.808c0,5.683 -0.825,10.885 -2.475,15.606c-1.65,4.721 -4.033,8.754 -7.15,12.1c-3.116,3.346 -6.852,5.935 -11.206,7.769c-4.354,1.833 -9.235,2.75 -14.644,2.75c-5.316,0 -10.152,-0.917 -14.506,-2.75c-4.354,-1.834 -8.089,-4.423 -11.206,-7.769c-3.117,-3.346 -5.546,-7.379 -7.288,-12.1c-1.741,-4.721 -2.612,-9.923 -2.612,-15.606c0,-5.684 0.894,-10.863 2.681,-15.538c1.788,-4.675 4.263,-8.662 7.425,-11.962c3.163,-3.3 6.921,-5.867 11.275,-7.7c4.354,-1.834 9.098,-2.75 14.231,-2.75c5.225,0 10.015,0.916 14.369,2.75c4.354,1.833 8.09,4.4 11.206,7.7c3.117,3.3 5.546,7.287 7.288,11.962c1.742,4.675 2.612,9.854 2.612,15.538Zm-20.9,0c0,-6.325 -1.26,-11.298 -3.781,-14.919c-2.521,-3.621 -6.119,-5.431 -10.794,-5.431c-4.675,0 -8.295,1.81 -10.862,5.431c-2.567,3.621 -3.85,8.594 -3.85,14.919c0,6.325 1.283,11.343 3.85,15.056c2.567,3.712 6.187,5.569 10.862,5.569c4.675,0 8.273,-1.857 10.794,-5.569c2.521,-3.713 3.781,-8.731 3.781,-15.056Z" style="fill:#fff;fill-rule:nonzero;"></path> <path d="M232.779,78.945c0,-5.225 0.848,-10.152 2.544,-14.781c1.696,-4.629 4.148,-8.663 7.356,-12.1c3.209,-3.438 7.105,-6.165 11.688,-8.181c4.583,-2.017 9.808,-3.025 15.675,-3.025c3.85,0 7.379,0.343 10.587,1.031c3.209,0.687 6.325,1.673 9.35,2.956l-4.262,16.363c-1.925,-0.734 -4.033,-1.375 -6.325,-1.925c-2.292,-0.55 -4.858,-0.825 -7.7,-0.825c-6.05,0 -10.565,1.879 -13.544,5.637c-2.979,3.759 -4.469,8.709 -4.469,14.85c0,6.509 1.398,11.55 4.194,15.125c2.796,3.575 7.677,5.363 14.644,5.363c2.475,0 5.133,-0.229 7.975,-0.688c2.842,-0.458 5.454,-1.191 7.837,-2.2l2.888,16.775c-2.383,1.009 -5.363,1.879 -8.938,2.613c-3.575,0.733 -7.516,1.1 -11.825,1.1c-6.6,0 -12.283,-0.986 -17.05,-2.957c-4.766,-1.97 -8.685,-4.652 -11.756,-8.043c-3.071,-3.392 -5.316,-7.402 -6.737,-12.032c-1.421,-4.629 -2.132,-9.647 -2.132,-15.056Z" style="fill:#fff;fill-rule:nonzero;"></path> <path d="M325.454,68.908c2.017,-2.2 4.103,-4.492 6.257,-6.875c2.154,-2.384 4.239,-4.744 6.256,-7.082c2.017,-2.337 3.919,-4.56 5.706,-6.668c1.788,-2.109 3.323,-3.942 4.606,-5.5l24.338,0c-4.858,5.591 -9.602,10.931 -14.231,16.018c-4.629,5.088 -9.694,10.336 -15.194,15.744c2.75,2.475 5.592,5.431 8.525,8.869c2.933,3.437 5.775,6.99 8.525,10.656c2.75,3.667 5.271,7.334 7.562,11c2.292,3.667 4.217,7.013 5.775,10.038l-23.512,0c-1.467,-2.384 -3.14,-5.019 -5.019,-7.907c-1.879,-2.887 -3.873,-5.775 -5.981,-8.662c-2.108,-2.888 -4.331,-5.66 -6.669,-8.319c-2.337,-2.658 -4.652,-4.904 -6.944,-6.737l0,31.625l-20.487,0l0,-103.4l20.487,-3.3l0,60.5Z" style="fill:#fff;fill-rule:nonzero;"></path> <path d="M376.192,78.945c0,-5.225 0.848,-10.152 2.544,-14.781c1.696,-4.629 4.148,-8.663 7.356,-12.1c3.208,-3.438 7.104,-6.165 11.687,-8.181c4.584,-2.017 9.809,-3.025 15.675,-3.025c3.85,0 7.38,0.343 10.588,1.031c3.208,0.687 6.325,1.673 9.35,2.956l-4.263,16.363c-1.925,-0.734 -4.033,-1.375 -6.325,-1.925c-2.291,-0.55 -4.858,-0.825 -7.7,-0.825c-6.05,0 -10.564,1.879 -13.543,5.637c-2.979,3.759 -4.469,8.709 -4.469,14.85c0,6.509 1.398,11.55 4.194,15.125c2.796,3.575 7.677,5.363 14.643,5.363c2.475,0 5.134,-0.229 7.975,-0.688c2.842,-0.458 5.455,-1.191 7.838,-2.2l2.887,16.775c-2.383,1.009 -5.362,1.879 -8.937,2.613c-3.575,0.733 -7.517,1.1 -11.825,1.1c-6.6,0 -12.283,-0.986 -17.05,-2.957c-4.767,-1.97 -8.685,-4.652 -11.756,-8.043c-3.071,-3.392 -5.317,-7.402 -6.738,-12.032c-1.421,-4.629 -2.131,-9.647 -2.131,-15.056Z" style="fill:#fff;fill-rule:nonzero;"></path> <path d="M448.379,115.108l0,-103.4l20.488,-3.3l0,34.65c1.375,-0.459 3.14,-0.894 5.294,-1.307c2.154,-0.412 4.239,-0.618 6.256,-0.618c5.867,0 10.748,0.802 14.644,2.406c3.896,1.604 7.012,3.873 9.35,6.806c2.337,2.934 3.987,6.417 4.95,10.45c0.962,4.034 1.443,8.525 1.443,13.475l0,40.838l-20.487,0l0,-38.363c0,-6.6 -0.848,-11.275 -2.544,-14.025c-1.696,-2.75 -4.835,-4.125 -9.419,-4.125c-1.833,0 -3.552,0.161 -5.156,0.481c-1.604,0.321 -3.048,0.665 -4.331,1.032l0,55l-20.488,0Z" style="fill:#fff;fill-rule:nonzero;"></path> <path d="M557.004,100.808c2.017,0 3.942,-0.046 5.775,-0.138c1.834,-0.091 3.3,-0.229 4.4,-0.412l0,-15.538c-0.825,-0.183 -2.062,-0.366 -3.712,-0.55c-1.65,-0.183 -3.163,-0.275 -4.538,-0.275c-1.925,0 -3.735,0.115 -5.431,0.344c-1.696,0.229 -3.185,0.665 -4.469,1.306c-1.283,0.642 -2.291,1.513 -3.025,2.613c-0.733,1.1 -1.1,2.475 -1.1,4.125c0,3.208 1.078,5.431 3.232,6.668c2.154,1.238 5.11,1.857 8.868,1.857Zm-1.65,-59.95c6.05,0 11.092,0.687 15.125,2.062c4.034,1.375 7.265,3.346 9.694,5.913c2.429,2.566 4.148,5.683 5.156,9.35c1.009,3.666 1.513,7.746 1.513,12.237l0,42.625c-2.933,0.642 -7.013,1.398 -12.238,2.269c-5.225,0.871 -11.55,1.306 -18.975,1.306c-4.675,0 -8.914,-0.412 -12.718,-1.237c-3.804,-0.825 -7.082,-2.177 -9.832,-4.057c-2.75,-1.879 -4.858,-4.331 -6.325,-7.356c-1.466,-3.025 -2.2,-6.737 -2.2,-11.137c0,-4.217 0.848,-7.792 2.544,-10.725c1.696,-2.934 3.965,-5.271 6.806,-7.013c2.842,-1.741 6.096,-3.002 9.763,-3.781c3.667,-0.779 7.471,-1.169 11.412,-1.169c2.659,0 5.019,0.115 7.082,0.344c2.062,0.229 3.735,0.527 5.018,0.894l0,-1.925c0,-3.484 -1.054,-6.279 -3.162,-8.388c-2.108,-2.108 -5.775,-3.162 -11,-3.162c-3.483,0 -6.921,0.252 -10.313,0.756c-3.391,0.504 -6.325,1.215 -8.8,2.131l-2.612,-16.5c1.192,-0.366 2.681,-0.756 4.469,-1.169c1.787,-0.412 3.735,-0.779 5.843,-1.1c2.109,-0.32 4.332,-0.595 6.669,-0.825c2.338,-0.229 4.698,-0.343 7.081,-0.343Z" style="fill:#fff;fill-rule:nonzero;"></path> <path d="M625.892,115.108l-20.488,0l0,-72.325l20.488,0l0,72.325Zm1.925,-93.225c0,3.758 -1.215,6.714 -3.644,8.868c-2.429,2.155 -5.294,3.232 -8.594,3.232c-3.3,0 -6.164,-1.077 -8.593,-3.232c-2.429,-2.154 -3.644,-5.11 -3.644,-8.868c0,-3.759 1.215,-6.715 3.644,-8.869c2.429,-2.154 5.293,-3.231 8.593,-3.231c3.3,0 6.165,1.077 8.594,3.231c2.429,2.154 3.644,5.11 3.644,8.869Z" style="fill:#fff;fill-rule:nonzero;"></path> <path d="M645.142,45.258c3.483,-1.009 7.975,-1.948 13.475,-2.819c5.5,-0.871 11.275,-1.306 17.325,-1.306c6.142,0 11.252,0.802 15.331,2.406c4.079,1.604 7.311,3.873 9.694,6.806c2.383,2.934 4.079,6.417 5.087,10.45c1.009,4.034 1.513,8.525 1.513,13.475l0,40.838l-20.488,0l0,-38.363c0,-6.6 -0.87,-11.275 -2.612,-14.025c-1.742,-2.75 -4.996,-4.125 -9.763,-4.125c-1.466,0 -3.025,0.069 -4.675,0.206c-1.65,0.138 -3.116,0.298 -4.4,0.482l0,55.825l-20.487,0l0,-69.85Z" style="fill:#fff;fill-rule:nonzero;"></path> <path d="M784.979,19.82l21.45,0l0,95.288l-21.45,0l0,-40.425l-36.025,0l0,40.425l-21.45,0l0,-95.288l21.45,0l0,36.438l36.025,0l0,-36.438Z" style="fill:#ff1d51;fill-rule:nonzero;"></path> <path d="M888.792,112.633c-3.483,1.008 -7.975,1.948 -13.475,2.818c-5.5,0.871 -11.275,1.307 -17.325,1.307c-6.142,0 -11.252,-0.825 -15.331,-2.475c-4.079,-1.65 -7.311,-3.965 -9.694,-6.944c-2.383,-2.979 -4.079,-6.531 -5.088,-10.656c-1.008,-4.125 -1.512,-8.663 -1.512,-13.613l0,-40.287l20.487,0l0,37.812c0,6.6 0.871,11.367 2.613,14.3c1.742,2.934 4.996,4.4 9.762,4.4c1.467,0 3.025,-0.069 4.675,-0.206c1.65,-0.138 3.117,-0.298 4.4,-0.481l0,-55.825l20.488,0l0,69.85Z" style="fill:#ff1d51;fill-rule:nonzero;"></path> <path d="M954.379,78.395c0,-13.2 -4.858,-19.8 -14.575,-19.8c-2.108,0 -4.193,0.275 -6.256,0.825c-2.062,0.55 -3.735,1.238 -5.019,2.063l0,37.262c1.009,0.184 2.292,0.344 3.85,0.481c1.559,0.138 3.255,0.207 5.088,0.207c5.592,0 9.808,-1.925 12.65,-5.775c2.842,-3.85 4.262,-8.938 4.262,-15.263Zm20.9,0.55c0,5.775 -0.847,11 -2.543,15.675c-1.696,4.675 -4.148,8.663 -7.357,11.963c-3.208,3.3 -7.15,5.843 -11.825,7.631c-4.675,1.787 -9.991,2.681 -15.95,2.681c-2.475,0 -5.064,-0.114 -7.768,-0.344c-2.704,-0.229 -5.363,-0.527 -7.975,-0.893c-2.613,-0.367 -5.111,-0.802 -7.494,-1.307c-2.383,-0.504 -4.492,-1.031 -6.325,-1.581l0,-101.062l20.487,-3.3l0,36.025c2.292,-1.009 4.675,-1.788 7.15,-2.338c2.475,-0.55 5.134,-0.825 7.975,-0.825c5.134,0 9.671,0.894 13.613,2.681c3.942,1.788 7.242,4.332 9.9,7.632c2.658,3.3 4.675,7.264 6.05,11.893c1.375,4.63 2.062,9.786 2.062,15.469Z" style="fill:#ff1d51;fill-rule:nonzero;"></path> </g> </svg> 